<svg xmlns="http://www.w3.org/2000/svg" viewBox="0 0 23.24 20.28"><g data-name="Layer 2"><g data-name="Layer 1"><g data-name="6GiqoN"><g data-name="&lt;Group&gt;"><path data-name="&lt;Path&gt;" d="M0 7.76V6c0-.15.05-.31.08-.46A6.32 6.32 0 0 1 4.27.44a6.24 6.24 0 0 1 6.48 1.16c.3.24.57.53.86.81l.13-.14a6.5 6.5 0 0 1 10.54 1 7.28 7.28 0 0 1 .24 6.73 13.59 13.59 0 0 1-2.85 4 39 39 0 0 1-7.93 6.19.27.27 0 0 1-.31 0c-1.1-.73-2.22-1.43-3.29-2.2a29.86 29.86 0 0 1-5.62-5.09A11.4 11.4 0 0 1 .34 9.2 14.33 14.33 0 0 1 0 7.76z" fill="#ea8824"/></g></g></g></g></svg>