<svg xmlns="http://www.w3.org/2000/svg" viewBox="0 0 21.67 21.66"><path d="M11.55 21.66H9.93c-.59-.1-1.19-.15-1.77-.3a10.65 10.65 0 0 1-5.9-3.87 10.26 10.26 0 0 1-2.09-4.74c-.07-.39-.11-.78-.17-1.17v-1.43c0-.27.06-.53.1-.8a10.44 10.44 0 0 1 2.51-5.53A10.6 10.6 0 0 1 12.88.23a10.23 10.23 0 0 1 5.94 3.32 10.59 10.59 0 0 1 2.64 9.4 10.43 10.43 0 0 1-4 6.47 10.33 10.33 0 0 1-4.75 2.11c-.38.03-.77.07-1.16.13zM8.2 12.05a4.48 4.48 0 0 1-.57-6.68 4.45 4.45 0 0 1 6.23-.16 4.23 4.23 0 0 1 1.4 2.92 4.43 4.43 0 0 1-1.8 3.92 8.53 8.53 0 0 1 3 1.76 8.19 8.19 0 0 1 2 2.8 9.5 9.5 0 0 0-1.18-12.87 9.49 9.49 0 0 0-13.4.6A9.47 9.47 0 0 0 3.3 16.6a8.36 8.36 0 0 1 4.9-4.55zm2.7 8.34h.83l.41-.05a9.46 9.46 0 0 0 5.21-2.49.24.24 0 0 0 0-.23 9.88 9.88 0 0 0-.52-1.15A6.9 6.9 0 0 0 9.56 13a6.83 6.83 0 0 0-5.3 4.51.21.21 0 0 0 .06.27 9.55 9.55 0 0 0 6.58 2.61zm-.08-15.11a3.2 3.2 0 0 0-3.16 3.19 3.19 3.19 0 0 0 3.17 3.16A3.19 3.19 0 0 0 14 8.45a3.2 3.2 0 0 0-3.18-3.17z" fill="#004664" data-name="Layer 2"/></svg>