<svg xmlns="http://www.w3.org/2000/svg" viewBox="0 0 24.97 28.15"><defs><style>.cls-1{fill:#003757}</style></defs><g id="Layer_2" data-name="Layer 2"><g id="Layer_1-2" data-name="Layer 1"><g id="Pt7KRO"><path class="cls-1" d="M23.22 0H1.75l-.09 1.46-.27 4.12c-.08 1.3-.15 2.61-.23 3.92-.1 1.63-.21 3.27-.31 4.91l-.24 3.92C.51 20 .4 21.6.3 23.24l-.24 4-.06.91h25c-.11-1.69-.21-3.37-.31-5l-.24-3.87c-.11-1.65-.21-3.31-.31-5l-.24-3.89c-.11-1.65-.21-3.29-.31-4.94l-.24-3.89c0-.52-.07-1-.1-1.55zM1.77 26.48c.51-8.28 1-16.54 1.54-24.83h18.35l1.54 24.83z"/><path class="cls-1" d="M16.89 5.68h.05v.14l-.1-.14h.06m0-1.3a1.41 1.41 0 0 0-.86.3 1.3 1.3 0 0 0-.25 1.86 1.25 1.25 0 0 1 .28 1v.79A9.43 9.43 0 0 1 16 9.79a3.52 3.52 0 0 1-3.5 2.83h-.47A3.49 3.49 0 0 1 9 9.54c-.08-.85-.05-1.7-.05-2.55 0-.09.07-.18.13-.25a1.37 1.37 0 0 0-1-2.35 1.35 1.35 0 0 0-1 .4 1.38 1.38 0 0 0 0 2 .53.53 0 0 1 .13.33v1.19a14.91 14.91 0 0 0 .08 1.5 5.18 5.18 0 0 0 5.14 4.52 4.36 4.36 0 0 0 .72 0 5.21 5.21 0 0 0 4.53-5.15v-2a.66.66 0 0 1 .15-.4 1.38 1.38 0 0 0 0-1.89 1.32 1.32 0 0 0-1-.45z"/></g></g></g></svg>