<svg xmlns="http://www.w3.org/2000/svg" viewBox="0 0 24.22 23.69"><defs><style>.cls-1{fill:#004664}</style></defs><g id="Layer_2" data-name="Layer 2"><g id="Wireframe"><path class="cls-1" d="M18.73 16.19H4.4a4.39 4.39 0 0 1-.19-8.78 3.57 3.57 0 0 1 3.38-3 5.86 5.86 0 0 1 11.49.84 5.49 5.49 0 0 1-.35 11zM4.4 8.9a2.9 2.9 0 1 0 0 5.8h14.33a4 4 0 1 0 0-8h-.32a.72.72 0 0 1-.56-.2.74.74 0 0 1-.23-.5l.74-.11h-.74a4.36 4.36 0 0 0-8.68-.6.74.74 0 0 1-.87.64 1.87 1.87 0 0 0-.34 0 2.07 2.07 0 0 0-2.07 2.01v.18a.75.75 0 0 1-.85.81z" id="_Group_" data-name="&lt;Group&gt;"/><g id="_Group_2" data-name="&lt;Group&gt;"><g id="_Group_3" data-name="&lt;Group&gt;"><path class="cls-1" d="M6.08 17.66l-1.34 2.09m0 .75a.78.78 0 0 1-.41-.12.75.75 0 0 1-.22-1l1.34-2.09a.75.75 0 0 1 1.26.8l-1.34 2.1a.77.77 0 0 1-.63.31z" id="_Group_4" data-name="&lt;Group&gt;"/><path class="cls-1" d="M11.7 17.66l-1.34 2.09m0 .75a.72.72 0 0 1-.4-.12.74.74 0 0 1-.23-1l1.34-2.09a.75.75 0 0 1 1.26.8L11 20.16a.77.77 0 0 1-.64.34z" id="_Group_5" data-name="&lt;Group&gt;"/><path class="cls-1" d="M17.32 17.66l-1.34 2.09m.02.75a.72.72 0 0 1-.4-.12.74.74 0 0 1-.23-1l1.34-2.09a.75.75 0 1 1 1.26.8l-1.34 2.1a.75.75 0 0 1-.63.31z" id="_Group_6" data-name="&lt;Group&gt;"/></g><g id="_Group_7" data-name="&lt;Group&gt;"><path class="cls-1" d="M7.58 20.85l-1.35 2.09m0 .75a.72.72 0 0 1-.4-.12.75.75 0 0 1-.23-1L7 20.44a.75.75 0 0 1 1-.22.73.73 0 0 1 .22 1l-1.36 2.12a.73.73 0 0 1-.63.35z" id="_Group_8" data-name="&lt;Group&gt;"/><path class="cls-1" d="M13.2 20.85l-1.35 2.09m0 .75a.72.72 0 0 1-.4-.12.75.75 0 0 1-.23-1l1.35-2.1a.75.75 0 0 1 1-.22.73.73 0 0 1 .22 1l-1.34 2.09a.73.73 0 0 1-.6.35z" id="_Group_9" data-name="&lt;Group&gt;"/></g></g></g></g></svg>