<svg xmlns="http://www.w3.org/2000/svg" viewBox="0 0 17.38 15.16"><g data-name="Layer 2"><g data-name="&lt;Group&gt;"><g data-name="6GiqoN"><g data-name="&lt;Group&gt;"><path data-name="&lt;Path&gt;" d="M0 5.8V4.48l.06-.35A4.71 4.71 0 0 1 3.19.33 4.69 4.69 0 0 1 8 1.19c.22.18.42.4.64.61l.09-.1a4.86 4.86 0 0 1 7.88.73 5.43 5.43 0 0 1 .18 5.08 10.3 10.3 0 0 1-2.13 3 29.19 29.19 0 0 1-5.93 4.63.18.18 0 0 1-.23 0c-.82-.55-1.66-1.07-2.46-1.64a22.09 22.09 0 0 1-4.2-3.81A8.51 8.51 0 0 1 .25 6.88C.14 6.53.08 6.16 0 5.8z" fill="#fff"/></g></g></g></g></svg>