<svg xmlns="http://www.w3.org/2000/svg" viewBox="0 0 16.72 18"><g data-name="Layer 2"><path d="M2.57 1.28V.66a.64.64 0 1 1 1.28 0v.62h1.29V.7a.64.64 0 1 1 1.29 0v.57h1.29v-.6A.64.64 0 1 1 9 .68v.59h1.29v-.6a.64.64 0 1 1 1.28 0v.61h1.29V.71a.65.65 0 1 1 1.28 0v.57A2.63 2.63 0 0 1 16 2.2a2.51 2.51 0 0 1 .67 1.74v1.77a.65.65 0 0 1-.72.72H2.66a.65.65 0 1 1 0-1.28H15.4a14.56 14.56 0 0 0 0-1.59 1.1 1.1 0 0 0-1.24-1v.6a.64.64 0 1 1-1.29 0v-.6h-1.3v.6a.64.64 0 1 1-1.28 0v-.59H9v.58a.64.64 0 1 1-1.28 0v-.59H6.43v.65a.64.64 0 0 1-1.28 0v-.65H3.86v.57a.64.64 0 1 1-1.29 0v-.58a1.16 1.16 0 0 0-1.28 1.27v11.49a2.47 2.47 0 0 0 0 .34 1.16 1.16 0 0 0 1.24 1.06H14a2.9 2.9 0 0 0 .38 0 1.17 1.17 0 0 0 1.07-1.27V7.75a.64.64 0 1 1 1.28 0v7.71A2.67 2.67 0 0 1 14.16 18H2.54A2.67 2.67 0 0 1 0 15.46V3.81a2.7 2.7 0 0 1 2.41-2.52z" fill="#f78f20" data-name="Layer 1"/></g></svg>