<svg xmlns="http://www.w3.org/2000/svg" viewBox="0 0 39.31 39.31"><defs><style>.cls-1{fill:#fff}</style></defs><g id="Layer_2" data-name="Layer 2"><g id="Wireframe"><path class="cls-1" d="M19.66 0a19.66 19.66 0 1 0 19.65 19.66A19.66 19.66 0 0 0 19.66 0zM25 26.26a2.3 2.3 0 0 1-.74.12h-8.52a2.59 2.59 0 0 1-2.56-2.57v-6.2h3.88a2 2 0 0 1-.14.33 3.16 3.16 0 0 0-.48 1.79 3.5 3.5 0 1 0 7-.32 3.56 3.56 0 0 0-.44-1.62c0-.06-.05-.11-.08-.18h3.88v6.15a2.7 2.7 0 0 1-1.8 2.5zM13.15 15.87a4.84 4.84 0 0 1 .29-1.64 2.18 2.18 0 0 1 .94-1.1v3H15v-3.02c0-.3 0-.33.37-.34v3.4h.57v-3.44h.34v3.43h.57v-3.44h7.35a2.45 2.45 0 0 1 2.48 2 10.64 10.64 0 0 1 .13 2.47h-4a.68.68 0 0 1-.49-.18 3.37 3.37 0 0 0-2-.83 3.3 3.3 0 0 0-2.39.71 1.24 1.24 0 0 1-.84.3h-3.84c-.1-.47-.11-.9-.1-1.32zM22 19.61a2 2 0 1 1-4 0 2 2 0 0 1 2.05-2 2 2 0 0 1 1.95 2z"/><path class="cls-1" d="M23.64 16.07H25a.35.35 0 0 0 .4-.38V14.3a.34.34 0 0 0-.37-.38h-1.4a.34.34 0 0 0-.36.36v1.43a.33.33 0 0 0 .37.36z"/></g></g></svg>