<svg xmlns="http://www.w3.org/2000/svg" viewBox="0 0 39.31 39.31"><g data-name="Layer 2"><g data-name="Layer 9"><path d="M39.31 19.66A19.64 19.64 0 0 1 6.19 34a19.65 19.65 0 1 1 33.12-14.34z" fill="#eb8703"/><path d="M19.22 28H19a.47.47 0 0 1-.16-.61 10.57 10.57 0 0 0 .29-1.39c.06-.4-.07-.63-.55-.66a7.21 7.21 0 0 1-1.09-.15 9.85 9.85 0 0 1-2.9-1.09 8 8 0 0 1-2.21-1.83 6 6 0 0 1-1.3-2.68 8.8 8.8 0 0 1-.16-1.22 6.12 6.12 0 0 1 .08-.83 5 5 0 0 1 .59-1.87 7.15 7.15 0 0 1 1.89-2.29 9.43 9.43 0 0 1 2.74-1.51 10.29 10.29 0 0 1 3.1-.57 10.54 10.54 0 0 1 1.77.09 9.58 9.58 0 0 1 2.37.62 8.3 8.3 0 0 1 2.91 1.86 9.3 9.3 0 0 1 1.18 1.5 5 5 0 0 1 .75 2c0 .16.06.32.09.48v.89c0 .21-.06.43-.1.63a6.77 6.77 0 0 1-1.84 3.32 19.57 19.57 0 0 1-1.63 1.5c-.72.59-1.46 1.15-2.22 1.69A23.77 23.77 0 0 1 19.22 28zm.35-9.74l1.56 2.08a.56.56 0 0 0 .6.24.48.48 0 0 0 .38-.5V16.6c0-.3-.18-.5-.59-.47a.48.48 0 0 0-.47.51v1.81l-.88-1.15c-.26-.34-.52-.7-.79-1a.48.48 0 0 0-.57-.09.4.4 0 0 0-.29.44v3.39a.53.53 0 0 0 .57.59.49.49 0 0 0 .5-.59c-.03-.65-.01-1.22-.01-1.79zm4.12-1.13h1.22c.31 0 .47-.18.47-.51s-.14-.51-.47-.51h-1.78c-.36 0-.51.14-.51.51v3.44a.45.45 0 0 0 .48.51h1.81a.43.43 0 0 0 .44-.3c.05-.2.09-.43-.09-.58a.82.82 0 0 0-.43-.17h-1.17v-.64h1.19c.5 0 .64-.41.48-.81a.41.41 0 0 0-.43-.25h-1.2zM15 19.5v-2.87a.47.47 0 0 0-.52-.53c-.33 0-.5.18-.5.53v3.41a.47.47 0 0 0 .48.51h1.81a.42.42 0 0 0 .43-.31c.13-.47-.08-.74-.58-.74zm2-1.16v1.7a.5.5 0 0 0 .51.52A.48.48 0 0 0 18 20v-3.44a.51.51 0 1 0-1 0v1.78z" fill="#fff"/></g></g></svg>