<svg xmlns="http://www.w3.org/2000/svg" viewBox="0 0 99.19 43.85"><defs><style>.cls-1{fill:#006399}</style></defs><g id="Layer_2" data-name="Layer 2"><g id="Layer_1-2" data-name="Layer 1"><path class="cls-1" d="M66.8 31.47a4.75 4.75 0 1 1 4.75-4.75 4.75 4.75 0 0 1-4.75 4.75zm.08-14.63a9.92 9.92 0 0 0-10.09 10 9.6 9.6 0 0 0 9.32 9.84 6.4 6.4 0 0 0 4.3-1.42l1.25-.9v1.79h5.15V27.2c0-6-4.18-10.36-9.93-10.36zM44.61 31.47a4.75 4.75 0 1 1 4.74-4.75 4.75 4.75 0 0 1-4.74 4.75zM44 16.84a9.7 9.7 0 0 0-9.36 9.79 9.94 9.94 0 0 0 10.08 10c5.76 0 9.93-4.41 9.93-10.49V9.1H49.5v9.84l-1.29-.81A7.59 7.59 0 0 0 44 16.84zM10.25 21.9v-4.46H5.11V9.1H0v19.68c0 3.16.59 4.73 2.28 6 1.46 1.05 2.66 1.32 5.82 1.32h2.15v-4.48H8.67c-2.77 0-3.56-.76-3.56-3.36V21.9zm15.64-4.6a10 10 0 0 0-13.45 9.1 2.72 2.72 0 0 0 0 .28 9.91 9.91 0 0 0 1.63 5.46.57.57 0 0 0 .08.13 10 10 0 0 0 6 4.14 10.29 10.29 0 0 0 2.31.27 10 10 0 0 0 5.4-1.59 10 10 0 0 0-2-17.77zm-3.45 14.17a4.75 4.75 0 1 1 4.75-4.75 4.75 4.75 0 0 1-4.75 4.75zM99 16.8V28a10.93 10.93 0 0 1-.27 1.29 9.61 9.61 0 0 1-9.52 7.35 9.94 9.94 0 0 1-10-8.55l-.07-11.29h5.43V28a4.75 4.75 0 0 0 9 .42V16.8z"/><path class="cls-1" d="M93.59 16.8h5.43v27.05h-5.43z"/><path d="M99.19 14.6v-1.14H56.8v1.14s42.39.02 42.39 0zM66.13 9.75a2.07 2.07 0 1 1 2.07-2.08 2.08 2.08 0 0 1-2.07 2.08m0-6.38a4.33 4.33 0 0 0-4.4 4.34 4.19 4.19 0 0 0 4.1 4.29 2.82 2.82 0 0 0 1.87-.62l.55-.39v.78h2.24V7.89a4.28 4.28 0 0 0-4.32-4.52M76 9.75a2.07 2.07 0 1 1 2-2.08 2.08 2.08 0 0 1-2 2.08m.28-6.38a3.31 3.31 0 0 0-1.85.56l-.56.36V0H71.6v7.43a4.36 4.36 0 1 0 8.72.21 4.23 4.23 0 0 0-4.08-4.27m9.38 6.38a2.07 2.07 0 1 1 2.07-2.08 2.08 2.08 0 0 1-2.07 2.08m.28-6.38a3.31 3.31 0 0 0-1.9.56l-.57.36V0h-2.18v7.43a4.36 4.36 0 1 0 8.75.21 4.23 4.23 0 0 0-4.1-4.27m5.15.23h2.3v8.17h-2.3zm8.09 1.98V3.63H96.9V0h-2.22v8.58c0 1.37.25 2.05 1 2.61a3.68 3.68 0 0 0 2.54.58h.93v-2h-.69c-1.2 0-1.55-.33-1.55-1.46V5.58zM61.17 3.37a4.28 4.28 0 0 0-4.32 4.52v3.88h2.24V8.15c0-1.61.78-2.57 2.1-2.57h.13v-2.2h-.15" fill="#f78f20"/></g></g></svg>