<svg xmlns="http://www.w3.org/2000/svg" viewBox="0 0 39.31 39.31"><defs><style>.cls-2{fill:#fff}</style></defs><g id="Layer_2" data-name="Layer 2"><g id="Layer_9" data-name="Layer 9"><path d="M39.31 19.66A19.64 19.64 0 0 1 6.19 34a19.65 19.65 0 1 1 33.12-14.34z" fill="#eb8703"/><g id="oS1WWZ.tif"><path class="cls-2" d="M27.94 15.47v7.98a1.55 1.55 0 0 1-1.6 1.61h-13.4a1.49 1.49 0 0 1-1.55-1.18 1.83 1.83 0 0 1 0-.39v-8.01l.22.13q3.74 2.33 7.47 4.66a1 1 0 0 0 1.2 0q3.72-2.34 7.45-4.65z"/><path class="cls-2" d="M12.62 14.26h14.06l-.2.14-6.67 4.16a.24.24 0 0 1-.29 0l-6.75-4.22z"/></g></g></g></svg>