<svg xmlns="http://www.w3.org/2000/svg" viewBox="0 0 13.48 18"><defs><style>.cls-1{fill:#f78f20}</style></defs><g id="Layer_2" data-name="Layer 2"><g id="Layer_1-2" data-name="Layer 1"><g id="sS1kGR"><path class="cls-1" d="M.17 9V1.43a1.24 1.24 0 0 1 .5-1 1.23 1.23 0 0 1 .8-.24h10.51a1.31 1.31 0 0 1 1.32 1.3v15.09a1.22 1.22 0 0 1-1.3 1.25H1.41A1.21 1.21 0 0 1 .17 16.6V9zm1.27 8.08H12c.42 0 .52-.1.52-.52V1.45c0-.44-.09-.53-.52-.53H7.66v10.27a.45.45 0 0 1-.16.38L4.85 14zm-.52-.55l.15-.12L6.8 11.2a.45.45 0 0 0 .11-.31V.92H1.43C1 .93.92 1 .92 1.45v15.08z"/><path class="cls-1" d="M7.24 18H1.41A1.37 1.37 0 0 1 0 16.6V1.44A1.4 1.4 0 0 1 .56.29 1.42 1.42 0 0 1 1.47 0H12a1.45 1.45 0 0 1 1 .42 1.47 1.47 0 0 1 .45 1v15.09A1.38 1.38 0 0 1 12 18zM1.46.34a1 1 0 0 0-.69.21 1.07 1.07 0 0 0-.44.89v15.15a1 1 0 0 0 1.07 1.07H12a1 1 0 0 0 1.1-1.11V1.47a1.14 1.14 0 0 0-.3-.81 1.11 1.11 0 0 0-.8-.33H1.46zM12 17.25H1l4.33-3.93 2.05-1.86a.29.29 0 0 0 .11-.26V.78H12c.53 0 .69.16.69.7v15.09c.03.51-.15.68-.69.68zm-10.13-.33H12c.33 0 .35 0 .35-.35V1.46c0-.35 0-.36-.36-.36H7.83v10.13a.61.61 0 0 1-.22.5l-2.05 1.84zm-1.12 0V1.45c0-.52.17-.69.68-.69h5.63v10.13a.61.61 0 0 1-.17.43l-5.27 4.81-.44.4-.09.07zM6.64 1.09H1.43c-.32 0-.34 0-.34.36v14.72l.31-.28 5.28-4.8a.3.3 0 0 0 .06-.18v-9.8z"/><path class="cls-1" d="M6 6.9h-.74V5.17H6z"/><path class="cls-1" d="M6.14 7.06H5.09V5h1.05zm-.72-.33h.38v-1.4h-.38z"/></g></g></g></svg>