<svg xmlns="http://www.w3.org/2000/svg" viewBox="0 0 18 18"><defs><style>.cls-1{fill:#f78f20}</style></defs><g id="Layer_2" data-name="Layer 2"><g id="Layer_1-2" data-name="Layer 1"><g id="mXxgmm"><path class="cls-1" d="M17.83 6.93l-.14.07L7.05 17.69l-.12.14h-.28l-.12-.14L4.86 16l-.13-.13a1.56 1.56 0 0 0 .68-1.31 2.05 2.05 0 0 0-.5-1.41 1.87 1.87 0 0 0-1.21-.55 1.58 1.58 0 0 0-1.58.67L2 13.13.38 11.54l-.21-.19v-.28l.14-.12L11 .31l.12-.14h.28l.12.14L13.13 2l.13.14a1.57 1.57 0 0 0-.68 1.31 2.06 2.06 0 0 0 .48 1.4 1.89 1.89 0 0 0 1.25.58 1.59 1.59 0 0 0 1.57-.67l.15.14 1.65 1.65.15.13zm-2-1.39a2.46 2.46 0 0 1-3.43-3.4L11.21.89 7.75 4.35l.86.84-.39.43-.86-.88-6.48 6.48 1.23 1.24a2.47 2.47 0 0 1 3.44 3.4l1.23 1.25 6.5-6.5-.86-.83.39-.43.86.89 3.45-3.45z"/><path class="cls-1" d="M7 18h-.42l-.09-.11-.07-.08-1.67-1.67-.1-.14-.16-.17.14-.11a1.4 1.4 0 0 0 .62-1.18 1.87 1.87 0 0 0-.45-1.3 1.72 1.72 0 0 0-1.12-.52 1.43 1.43 0 0 0-1.43.6l-.11.16-.21-.2-.08-.08-1.59-1.54-.14-.13-.12-.11V11l.1-.09.09-.07L10.83.19l.08-.09L11 0h.43l.09.11.07.08 1.66 1.66.1.11.16.17-.14.11a1.39 1.39 0 0 0-.61 1.18 1.87 1.87 0 0 0 .44 1.29 1.7 1.7 0 0 0 1.15.53 1.43 1.43 0 0 0 1.42-.6l.11-.15.76.74L17.8 6.4l.09.08.11.09V7l-.11.09-.08.07L7.17 17.81l-.07.08zm-.27-.33h.12l.08-.09L17.58 6.93l.09-.08v-.12l-.1-.09L15.91 5a1.73 1.73 0 0 1-1.6.59 2 2 0 0 1-1.35-.64 2.26 2.26 0 0 1-.53-1.5A1.66 1.66 0 0 1 13 2.1L11.35.42l-.08-.09h-.12l-.08.09L.42 11.07l-.09.08v.13l.16.15L2.1 13a1.75 1.75 0 0 1 1.62-.59 2 2 0 0 1 1.28.64 2.21 2.21 0 0 1 .54 1.52A1.67 1.67 0 0 1 5 15.9l1.67 1.67zm.05-.32l-1.44-1.48.09-.11a2.3 2.3 0 0 0-3.21-3.16l-.12.09-1.45-1.47L7.36 4.5l.86.87.16-.18-.86-.85L11.21.66l1.46 1.47-.09.12a2.3 2.3 0 0 0 3.19 3.17l.12-.1 1.47 1.47-3.68 3.68-.86-.88-.16.18.87.84-.12.12zm-1-1.5l1 1 6.27-6.27-.86-.83.61-.68.87.89 3.21-3.21-1-1a2.66 2.66 0 0 1-3.2-.38 2.69 2.69 0 0 1-.43-3.23l-1-1L8 4.35l.85.83-.61.68L7.36 5l-6.24 6.22 1 1a2.64 2.64 0 0 1 3.64 3.6z"/><path class="cls-1" d="M11.14 7.75l1.05 1.07-.37.33-1.05-1.07z"/><path class="cls-1" d="M11.82 9.38l-1.29-1.31.62-.55 1.28 1.3zM11 8.09l.82.83.18-.11-.86-.81zM8.84 6.14l.35-.35 1.08 1.1-.36.33z"/><path class="cls-1" d="M9.89 7.44L8.6 6.13l.58-.58 1.32 1.34zm-.83-1.3l.85.86.12-.1-.85-.9z"/></g></g></g></svg>