<svg xmlns="http://www.w3.org/2000/svg" viewBox="0 0 24.22 23.69"><defs><style>.cls-1{fill:#004664;}</style></defs><title>Asset 1</title><g id="Layer_2" data-name="Layer 2"><g id="Wireframe"><g id="_Group_" data-name="&lt;Group&gt;"><path class="cls-1" d="M18.73,16.19H4.4a4.39,4.39,0,0,1-.19-8.78,3.57,3.57,0,0,1,3.38-3,5.86,5.86,0,0,1,11.49.84,5.49,5.49,0,0,1-.35,11ZM4.4,8.9a2.9,2.9,0,1,0,0,5.8H18.73a4,4,0,1,0,0-8h-.32a.72.72,0,0,1-.56-.2A.74.74,0,0,1,17.62,6l.74-.11h-.74a4.36,4.36,0,0,0-8.68-.6.74.74,0,0,1-.87.64,1.87,1.87,0,0,0-.34,0A2.07,2.07,0,0,0,5.66,7.94c0,.06,0,.12,0,.18a.75.75,0,0,1-.85.81Z"/></g><g id="_Group_2" data-name="&lt;Group&gt;"><g id="_Group_3" data-name="&lt;Group&gt;"><g id="_Group_4" data-name="&lt;Group&gt;"><line class="cls-1" x1="6.08" y1="17.66" x2="4.74" y2="19.75"/><path class="cls-1" d="M4.74,20.5a.78.78,0,0,1-.41-.12.75.75,0,0,1-.22-1l1.34-2.09a.75.75,0,0,1,1.26.8l-1.34,2.1A.77.77,0,0,1,4.74,20.5Z"/></g><g id="_Group_5" data-name="&lt;Group&gt;"><line class="cls-1" x1="11.7" y1="17.66" x2="10.36" y2="19.75"/><path class="cls-1" d="M10.36,20.5a.72.72,0,0,1-.4-.12.74.74,0,0,1-.23-1l1.34-2.09a.75.75,0,0,1,1.26.8L11,20.16A.77.77,0,0,1,10.36,20.5Z"/></g><g id="_Group_6" data-name="&lt;Group&gt;"><line class="cls-1" x1="17.32" y1="17.66" x2="15.98" y2="19.75"/><path class="cls-1" d="M16,20.5a.72.72,0,0,1-.4-.12.74.74,0,0,1-.23-1l1.34-2.09a.75.75,0,1,1,1.26.8l-1.34,2.1A.75.75,0,0,1,16,20.5Z"/></g></g><g id="_Group_7" data-name="&lt;Group&gt;"><g id="_Group_8" data-name="&lt;Group&gt;"><line class="cls-1" x1="7.58" y1="20.85" x2="6.23" y2="22.94"/><path class="cls-1" d="M6.23,23.69a.72.72,0,0,1-.4-.12.75.75,0,0,1-.23-1L7,20.44a.75.75,0,0,1,1-.22.73.73,0,0,1,.22,1L6.86,23.34A.73.73,0,0,1,6.23,23.69Z"/></g><g id="_Group_9" data-name="&lt;Group&gt;"><line class="cls-1" x1="13.2" y1="20.85" x2="11.85" y2="22.94"/><path class="cls-1" d="M11.85,23.69a.72.72,0,0,1-.4-.12.75.75,0,0,1-.23-1l1.35-2.1a.75.75,0,0,1,1-.22.73.73,0,0,1,.22,1l-1.34,2.09A.73.73,0,0,1,11.85,23.69Z"/></g></g></g></g></g></svg>