<svg xmlns="http://www.w3.org/2000/svg" viewBox="0 0 21.67 21.66"><defs><style>.cls-1{fill:#004664;}</style></defs><title>Asset 2</title><g id="Layer_2" data-name="Layer 2"><g id="Wireframe"><g id="obOMof"><path class="cls-1" d="M-271.45-62.34h-1.44l-.18,0c-.59-.1-1.19-.15-1.77-.3a10.65,10.65,0,0,1-5.9-3.87,10.26,10.26,0,0,1-2.09-4.74c-.07-.39-.11-.78-.17-1.17v-1.43c0-.27.06-.53.1-.8a10.44,10.44,0,0,1,2.51-5.53,10.6,10.6,0,0,1,10.27-3.59,10.23,10.23,0,0,1,5.94,3.32,10.59,10.59,0,0,1,2.64,9.4,10.43,10.43,0,0,1-4,6.47,10.33,10.33,0,0,1-4.75,2.11C-270.67-62.44-271.06-62.4-271.45-62.34Zm-3.35-9.61a4.48,4.48,0,0,1-.57-6.68,4.45,4.45,0,0,1,6.23-.16,4.23,4.23,0,0,1,1.4,2.92,4.43,4.43,0,0,1-1.8,3.92,8.53,8.53,0,0,1,3,1.76,8.19,8.19,0,0,1,2,2.8,9.5,9.5,0,0,0-1.18-12.87,9.49,9.49,0,0,0-13.4.6,9.47,9.47,0,0,0-.58,12.26A8.36,8.36,0,0,1-274.8-71.95Zm2.7,8.34.83,0,.41-.05a9.46,9.46,0,0,0,5.21-2.49.24.24,0,0,0,0-.23,9.88,9.88,0,0,0-.52-1.15A6.9,6.9,0,0,0-273.44-71a6.83,6.83,0,0,0-5.3,4.51.21.21,0,0,0,.06.27A9.55,9.55,0,0,0-272.1-63.61Zm-.08-15.11a3.2,3.2,0,0,0-3.16,3.19,3.19,3.19,0,0,0,3.17,3.16A3.19,3.19,0,0,0-269-75.55,3.2,3.2,0,0,0-272.18-78.72Z" transform="translate(283 84)"/></g></g></g></svg>