<svg xmlns="http://www.w3.org/2000/svg" viewBox="0 0 26.69 16.03"><defs><style>.cls-1{fill:#f78f21;}</style></defs><title>Asset 2</title><g id="Layer_2" data-name="Layer 2"><g id="Layer_1-2" data-name="Layer 1"><g id="d4SxO1.tif"><path class="cls-1" d="M0,8A20.19,20.19,0,0,1,2.42,5.29a21.54,21.54,0,0,1,5.66-4A11.93,11.93,0,0,1,13.92,0a12.45,12.45,0,0,1,4.6,1.21,22,22,0,0,1,6.61,5c.54.57,1,1.19,1.56,1.78a20.89,20.89,0,0,1-2.45,2.75,21,21,0,0,1-5.73,4.07A11.88,11.88,0,0,1,12.74,16a12.49,12.49,0,0,1-5.1-1.46A23.28,23.28,0,0,1,.09,8.15ZM24.9,8a.47.47,0,0,0-.09-.1l-.4-.47a21,21,0,0,0-6.33-4.89,11,11,0,0,0-4.25-1.15A10.74,10.74,0,0,0,8.58,2.55a21.1,21.1,0,0,0-6.3,4.88c-.18.19-.34.39-.53.61.55.57,1.07,1.15,1.63,1.69A18.41,18.41,0,0,0,9.71,14a9.93,9.93,0,0,0,5.83.43,13.93,13.93,0,0,0,4.56-2.06A23.59,23.59,0,0,0,24.9,8Z"/><path class="cls-1" d="M13.22,3.25a4.91,4.91,0,0,1,4.7,4.8,4.91,4.91,0,0,1-4.79,4.73A4.89,4.89,0,0,1,8.46,7.93,4.91,4.91,0,0,1,13.22,3.25Zm-.05,7.92A3,3,0,0,0,16.31,8a3,3,0,0,0-3.09-3.17A3,3,0,0,0,10.07,8,3,3,0,0,0,13.17,11.17Z"/></g></g></g></svg>