<svg xmlns="http://www.w3.org/2000/svg" viewBox="0 0 24.97 28.15"><defs><style>.cls-1{fill:#003757;}</style></defs><title>Asset 2</title><g id="Layer_2" data-name="Layer 2"><g id="Layer_1-2" data-name="Layer 1"><g id="Pt7KRO"><path class="cls-1" d="M23.22,0H1.75L1.66,1.46,1.39,5.58c-.08,1.3-.15,2.61-.23,3.92-.1,1.63-.21,3.27-.31,4.91L.61,18.33C.51,20,.4,21.6.3,23.24l-.24,4L0,28.15H25c-.11-1.69-.21-3.37-.31-5l-.24-3.87c-.11-1.65-.21-3.31-.31-5l-.24-3.89c-.11-1.65-.21-3.29-.31-4.94l-.24-3.89c0-.52-.07-1-.1-1.55ZM1.77,26.48c.51-8.28,1-16.54,1.54-24.83H21.66q.77,12.41,1.54,24.83Z"/><path class="cls-1" d="M16.89,5.68l.05,0s0,.11,0,.14l-.1-.14.06,0m0-1.3a1.41,1.41,0,0,0-.86.3,1.3,1.3,0,0,0-.25,1.86,1.25,1.25,0,0,1,.28,1c0,.26,0,.53,0,.79A9.43,9.43,0,0,1,16,9.79a3.52,3.52,0,0,1-3.5,2.83l-.47,0A3.49,3.49,0,0,1,9,9.54c-.08-.85-.05-1.7-.05-2.55,0-.09.07-.18.13-.25a1.37,1.37,0,0,0-1-2.35,1.35,1.35,0,0,0-1,.4,1.38,1.38,0,0,0,0,2,.53.53,0,0,1,.13.33c0,.4,0,.79,0,1.19h0a14.91,14.91,0,0,0,.08,1.5,5.18,5.18,0,0,0,5.14,4.52,4.36,4.36,0,0,0,.72,0,5.21,5.21,0,0,0,4.53-5.15c0-.65,0-1.31,0-2a.66.66,0,0,1,.15-.4,1.38,1.38,0,0,0,0-1.89,1.32,1.32,0,0,0-1-.45Z"/></g></g></g></svg>