<svg xmlns="http://www.w3.org/2000/svg" viewBox="0 0 16.72 18"><defs><style>.cls-1{fill:#f78f20;}</style></defs><title>note</title><g id="Layer_2" data-name="Layer 2"><g id="Layer_1-2" data-name="Layer 1"><g id="SLVrLN"><path class="cls-1" d="M2.57,1.28c0-.22,0-.42,0-.62a.64.64,0,1,1,1.28,0c0,.2,0,.4,0,.62H5.14c0-.19,0-.38,0-.58A.64.64,0,1,1,6.43.7c0,.19,0,.37,0,.57H7.72c0-.2,0-.4,0-.6A.64.64,0,1,1,9,.68c0,.19,0,.39,0,.59h1.29c0-.2,0-.4,0-.6a.64.64,0,1,1,1.28,0c0,.2,0,.4,0,.61h1.29c0-.18,0-.38,0-.57a.65.65,0,1,1,1.28,0c0,.19,0,.37,0,.57A2.63,2.63,0,0,1,16,2.2a2.51,2.51,0,0,1,.67,1.74c0,.59,0,1.18,0,1.77a.65.65,0,0,1-.72.72H2.66a.65.65,0,1,1,0-1.28H15.4a14.56,14.56,0,0,0,0-1.59,1.1,1.1,0,0,0-1.24-1c0,.2,0,.4,0,.6a.64.64,0,1,1-1.29,0c0-.19,0-.39,0-.6H11.57c0,.2,0,.4,0,.6a.64.64,0,1,1-1.28,0c0-.19,0-.39,0-.59H9c0,.2,0,.39,0,.58a.64.64,0,1,1-1.28,0c0-.19,0-.39,0-.59H6.43c0,.21,0,.43,0,.65a.64.64,0,0,1-1.28,0c0-.15,0-.31,0-.46s0-.12,0-.19H3.86c0,.19,0,.38,0,.57a.64.64,0,1,1-1.29,0c0-.19,0-.39,0-.58A1.16,1.16,0,0,0,1.29,3.82c0,1.39,0,2.77,0,4.16q0,3.67,0,7.33a2.47,2.47,0,0,0,0,.34,1.16,1.16,0,0,0,1.24,1.06H14a2.9,2.9,0,0,0,.38,0,1.17,1.17,0,0,0,1.07-1.27q0-3.31,0-6.63c0-.35,0-.71,0-1.06a.64.64,0,1,1,1.28,0c0,2.57,0,5.14,0,7.71A2.67,2.67,0,0,1,14.16,18H2.54A2.67,2.67,0,0,1,0,15.46Q0,9.63,0,3.81A2.7,2.7,0,0,1,2.41,1.29Z"/></g></g></g></svg>