<svg xmlns="http://www.w3.org/2000/svg" viewBox="0 0 39.13 39.13"><defs><style>.cls-1{fill:#fff;}</style></defs><title>Asset 3</title><g id="Layer_2" data-name="Layer 2"><g id="Wireframe"><path class="cls-1" d="M19.56,0A19.57,19.57,0,1,0,39.13,19.56,19.56,19.56,0,0,0,19.56,0ZM15.87,19.57V17H17.5c0-.48,0-.93,0-1.37a8.3,8.3,0,0,1,.17-1.5,2.53,2.53,0,0,1,2.46-1.91c1-.09,2.05,0,3.11,0v2.5H21.77c-.76,0-1,.23-1,1,0,.38,0,.77,0,1.15a1.15,1.15,0,0,0,0,.14h2.46c-.1.9-.2,1.72-.29,2.58H20.8V27H17.51V19.57Z"/></g></g></svg>