<svg xmlns="http://www.w3.org/2000/svg" viewBox="0 0 39.31 39.31"><defs><style>.cls-1{fill:#fff;}</style></defs><title>Asset 4</title><g id="Layer_2" data-name="Layer 2"><g id="Wireframe"><path class="cls-1" d="M19.66,0A19.66,19.66,0,1,0,39.31,19.66,19.66,19.66,0,0,0,19.66,0ZM25,26.26a2.3,2.3,0,0,1-.74.12H15.74a2.59,2.59,0,0,1-2.56-2.57V17.61h3.88a2,2,0,0,1-.14.33,3.16,3.16,0,0,0-.48,1.79,3.5,3.5,0,1,0,7-.32A3.56,3.56,0,0,0,23,17.79c0-.06-.05-.11-.08-.18h3.88v.22c0,2,0,4,0,5.93A2.7,2.7,0,0,1,25,26.26ZM13.15,15.87a4.84,4.84,0,0,1,.29-1.64,2.18,2.18,0,0,1,.94-1.1v3H15V13.11c0-.3,0-.33.37-.34v3.4h.57V12.73h.34v3.43h.57V12.72h7.35a2.45,2.45,0,0,1,2.48,2,10.64,10.64,0,0,1,.13,2.47h-4a.68.68,0,0,1-.49-.18,3.37,3.37,0,0,0-2-.83,3.3,3.3,0,0,0-2.39.71,1.24,1.24,0,0,1-.84.3c-1.2,0-2.4,0-3.61,0h-.23C13.15,16.72,13.14,16.29,13.15,15.87ZM22,19.61a2,2,0,1,1-4,0,2,2,0,0,1,2.05-2A2,2,0,0,1,22,19.61Z"/><path class="cls-1" d="M23.64,16.07H25a.35.35,0,0,0,.4-.38c0-.46,0-.93,0-1.39a.34.34,0,0,0-.37-.38H23.63a.34.34,0,0,0-.36.36c0,.48,0,1,0,1.43A.33.33,0,0,0,23.64,16.07Z"/></g></g></svg>