<svg xmlns="http://www.w3.org/2000/svg" viewBox="0 0 39.31 39.31"><defs><style>.cls-1{fill:#eb8703;}.cls-2{fill:#fff;}</style></defs><title>Asset 9</title><g id="Layer_2" data-name="Layer 2"><g id="Layer_9" data-name="Layer 9"><path class="cls-1" d="M39.31,19.66A19.64,19.64,0,0,1,6.19,34h0A19.65,19.65,0,1,1,39.31,19.66Z"/><g id="AfzPKA.tif"><path class="cls-2" d="M19.22,28H19a.47.47,0,0,1-.16-.61A10.57,10.57,0,0,0,19.13,26c.06-.4-.07-.63-.55-.66a7.21,7.21,0,0,1-1.09-.15,9.85,9.85,0,0,1-2.9-1.09,8,8,0,0,1-2.21-1.83,6,6,0,0,1-1.3-2.68,8.8,8.8,0,0,1-.16-1.22,6.12,6.12,0,0,1,.08-.83,5,5,0,0,1,.59-1.87,7.15,7.15,0,0,1,1.89-2.29,9.43,9.43,0,0,1,2.74-1.51,10.29,10.29,0,0,1,3.1-.57,10.54,10.54,0,0,1,1.77.09,9.58,9.58,0,0,1,2.37.62,8.3,8.3,0,0,1,2.91,1.86,9.3,9.3,0,0,1,1.18,1.5,5,5,0,0,1,.75,2c0,.16.06.32.09.48v.89c0,.21-.06.43-.1.63a6.77,6.77,0,0,1-1.84,3.32,19.57,19.57,0,0,1-1.63,1.5c-.72.59-1.46,1.15-2.22,1.69A23.77,23.77,0,0,1,19.22,28Zm.35-9.74h0l1.56,2.08a.56.56,0,0,0,.6.24.48.48,0,0,0,.38-.5c0-1.16,0-2.32,0-3.48,0-.3-.18-.5-.59-.47a.48.48,0,0,0-.47.51c0,.53,0,1.06,0,1.59,0,.06,0,.12,0,.22l-.88-1.15c-.26-.34-.52-.7-.79-1a.48.48,0,0,0-.57-.09.4.4,0,0,0-.29.44c0,.9,0,1.8,0,2.7,0,.23,0,.46,0,.69a.53.53,0,0,0,.57.59.49.49,0,0,0,.5-.59C19.56,19.39,19.58,18.82,19.58,18.25Zm4.12-1.13h1.22c.31,0,.47-.18.47-.51s-.14-.51-.47-.51H23.13c-.36,0-.51.14-.51.51q0,1.72,0,3.44a.45.45,0,0,0,.48.51c.6,0,1.21,0,1.81,0a.43.43,0,0,0,.44-.3c.05-.2.09-.43-.09-.58a.82.82,0,0,0-.43-.17c-.39,0-.78,0-1.17,0v-.64h.25c.31,0,.63,0,.94,0,.5,0,.64-.41.48-.81a.41.41,0,0,0-.43-.25H23.7ZM15,19.5c0-.13,0-.22,0-.3q0-1.28,0-2.57a.47.47,0,0,0-.52-.53c-.33,0-.5.18-.5.53q0,1.71,0,3.41a.47.47,0,0,0,.48.51c.6,0,1.21,0,1.81,0a.42.42,0,0,0,.43-.31c.13-.47-.08-.74-.58-.74Zm2-1.16c0,.57,0,1.13,0,1.7a.5.5,0,0,0,.51.52A.48.48,0,0,0,18,20q0-1.72,0-3.44a.51.51,0,1,0-1,0Q17,17.48,17,18.34Z"/></g></g></g></svg>