<svg xmlns="http://www.w3.org/2000/svg" viewBox="0 0 99.19 43.85"><defs><style>.cls-1{fill:#006399;}.cls-2{fill:#f78f20;}</style></defs><title>Asset 1</title><g id="Layer_2" data-name="Layer 2"><g id="Layer_1-2" data-name="Layer 1"><path class="cls-1" d="M66.8,31.47a4.75,4.75,0,1,1,4.75-4.75,4.75,4.75,0,0,1-4.75,4.75Zm.08-14.63a9.92,9.92,0,0,0-10.09,10,9.6,9.6,0,0,0,9.32,9.84,6.4,6.4,0,0,0,4.3-1.42l1.25-.9v1.79h5.15V27.2c0-6-4.18-10.36-9.93-10.36Z"/><path class="cls-1" d="M44.61,31.47a4.75,4.75,0,1,1,4.74-4.75,4.75,4.75,0,0,1-4.74,4.75ZM44,16.84a9.7,9.7,0,0,0-9.36,9.79,9.94,9.94,0,0,0,10.08,10c5.76,0,9.93-4.41,9.93-10.49V9.1H49.5v9.84l-1.29-.81A7.59,7.59,0,0,0,44,16.84Z"/><path class="cls-1" d="M10.25,21.9V17.44H5.11V9.1H0V28.78c0,3.16.59,4.73,2.28,6,1.46,1.05,2.66,1.32,5.82,1.32h2.15V31.62H8.67c-2.77,0-3.56-.76-3.56-3.36V21.9Z"/><path class="cls-1" d="M25.89,17.3a10,10,0,0,0-13.45,9.1,2.72,2.72,0,0,0,0,.28,9.91,9.91,0,0,0,1.63,5.46.57.57,0,0,0,.08.13,10,10,0,0,0,6,4.14,10.29,10.29,0,0,0,2.31.27,10,10,0,0,0,5.4-1.59l0,0a10,10,0,0,0-2-17.77ZM22.44,31.47a4.75,4.75,0,1,1,4.75-4.75A4.75,4.75,0,0,1,22.44,31.47Z"/><path class="cls-1" d="M99,16.8V28a10.93,10.93,0,0,1-.27,1.29,9.61,9.61,0,0,1-9.52,7.35,9.94,9.94,0,0,1-10-8.55h0L79.14,16.8h5.43V28a4.75,4.75,0,0,0,9,.42V16.8Z"/><rect class="cls-1" x="93.59" y="16.8" width="5.43" height="27.05"/><path class="cls-2" d="M99.19,14.6V13.46H56.8V14.6S99.19,14.62,99.19,14.6Z"/><path class="cls-2" d="M66.13,9.75A2.07,2.07,0,1,1,68.2,7.67a2.08,2.08,0,0,1-2.07,2.08m0-6.38a4.33,4.33,0,0,0-4.4,4.34A4.19,4.19,0,0,0,65.83,12a2.82,2.82,0,0,0,1.87-.62l.55-.39v.78h2.24V7.89a4.28,4.28,0,0,0-4.32-4.52"/><path class="cls-2" d="M76,9.75A2.07,2.07,0,1,1,78,7.67,2.08,2.08,0,0,1,76,9.75m.28-6.38a3.31,3.31,0,0,0-1.85.56l-.56.36V0H71.6V7.43a4.36,4.36,0,1,0,8.72.21,4.23,4.23,0,0,0-4.08-4.27"/><path class="cls-2" d="M85.62,9.75a2.07,2.07,0,1,1,2.07-2.08,2.08,2.08,0,0,1-2.07,2.08m.28-6.38A3.31,3.31,0,0,0,84,3.93l-.57.36V0H81.25V7.43A4.36,4.36,0,1,0,90,7.64,4.23,4.23,0,0,0,85.9,3.37"/><rect class="cls-2" x="91.05" y="3.6" width="2.3" height="8.17"/><path class="cls-2" d="M99.14,5.58V3.63H96.9V0H94.68V8.58c0,1.37.25,2.05,1,2.61a3.68,3.68,0,0,0,2.54.58h.93v-2h-.69c-1.2,0-1.55-.33-1.55-1.46V5.58Z"/><path class="cls-2" d="M61.17,3.37a4.28,4.28,0,0,0-4.32,4.52v3.88h2.24V8.15c0-1.61.78-2.57,2.1-2.57h.13V3.38h-.15"/></g></g></svg>