<svg xmlns="http://www.w3.org/2000/svg" viewBox="0 0 39.31 39.31"><defs><style>.cls-1{fill:#eb8703;}.cls-2{fill:#fff;}</style></defs><title>mail_1</title><g id="Layer_2" data-name="Layer 2"><g id="Layer_9" data-name="Layer 9"><path class="cls-1" d="M39.31,19.66A19.64,19.64,0,0,1,6.19,34h0A19.65,19.65,0,1,1,39.31,19.66Z"/><g id="oS1WWZ.tif"><path class="cls-2" d="M27.94,15.47v.38c0,2.53,0,5.07,0,7.6a1.55,1.55,0,0,1-1.6,1.61H12.94a1.49,1.49,0,0,1-1.55-1.18,1.83,1.83,0,0,1,0-.39q0-3.84,0-7.68c0-.09,0-.19,0-.33l.22.13q3.74,2.33,7.47,4.66a1,1,0,0,0,1.2,0q3.72-2.34,7.45-4.65Z"/><path class="cls-2" d="M12.62,14.26H26.68l-.2.14-6.67,4.16a.24.24,0,0,1-.29,0l-6.75-4.22Z"/></g></g></g></svg>