<svg xmlns="http://www.w3.org/2000/svg" viewBox="0 0 13.48 18"><defs><style>.cls-1{fill:#f78f20;}</style></defs><title>Asset 3</title><g id="Layer_2" data-name="Layer 2"><g id="Layer_1-2" data-name="Layer 1"><g id="sS1kGR"><path class="cls-1" d="M.17,9q0-3.78,0-7.57a1.24,1.24,0,0,1,.5-1,1.23,1.23,0,0,1,.8-.24H7.78c1.4,0,2.8,0,4.2,0a1.31,1.31,0,0,1,1.32,1.3c0,5,0,10.06,0,15.09A1.22,1.22,0,0,1,12,17.83H1.41A1.21,1.21,0,0,1,.17,16.6Q.17,12.8.17,9Zm1.27,8.08H12c.42,0,.52-.1.52-.52q0-7.56,0-15.11c0-.44-.09-.53-.52-.53H7.66v.39q0,4.94,0,9.88a.45.45,0,0,1-.16.38L4.85,14Zm-.52-.55.15-.12,5.73-5.21a.45.45,0,0,0,.11-.31q0-4.87,0-9.74c0-.07,0-.14,0-.23H1.43C1,.93.92,1,.92,1.45q0,7.39,0,14.78C.92,16.32.92,16.4.92,16.53Z"/><path class="cls-1" d="M7.24,18H1.41A1.37,1.37,0,0,1,0,16.6q0-2.84,0-5.69V7.33Q0,4.38,0,1.44A1.4,1.4,0,0,1,.56.29,1.42,1.42,0,0,1,1.47,0H9c1,0,2,0,3,0h0a1.45,1.45,0,0,1,1,.42,1.47,1.47,0,0,1,.45,1q0,5.46,0,10.93v4.16A1.38,1.38,0,0,1,12,18ZM1.46.34A1,1,0,0,0,.77.55a1.07,1.07,0,0,0-.44.89q0,2.94,0,5.88V10.9q0,2.85,0,5.69a1,1,0,0,0,1.07,1.07H12a1,1,0,0,0,1.1-1.11V12.4q0-5.46,0-10.93A1.14,1.14,0,0,0,12.8.66,1.11,1.11,0,0,0,12,.33c-1,0-2,0-3,0H1.46ZM12,17.25H1l4.33-3.93,2.05-1.86a.29.29,0,0,0,.11-.26q0-4.11,0-8.23V.78H12c.53,0,.69.16.69.7V16.57C12.72,17.08,12.54,17.25,12,17.25ZM1.87,16.92H12c.33,0,.35,0,.35-.35V1.46c0-.35,0-.36-.36-.36H7.83V3q0,4.11,0,8.23a.61.61,0,0,1-.22.5L5.56,13.57Zm-1.12,0V1.45c0-.52.17-.69.68-.69H7.06V1c0,.05,0,.1,0,.15q0,4.87,0,9.74a.61.61,0,0,1-.17.43L1.62,16.13l-.44.4-.09.07ZM6.64,1.09H1.43c-.32,0-.34,0-.34.36V16.17l.31-.28,5.28-4.8a.3.3,0,0,0,.06-.18q0-4.87,0-9.74s0,0,0-.06Z"/><path class="cls-1" d="M6,6.9H5.26V5.17H6Z"/><path class="cls-1" d="M6.14,7.06H5.09V5H6.14Zm-.72-.33h.38V5.33H5.42Z"/></g></g></g></svg>