<svg xmlns="http://www.w3.org/2000/svg" viewBox="0 0 39.18 39.18"><defs><style>.cls-1{fill:#fff;}</style></defs><title>Asset 2</title><g id="Layer_2" data-name="Layer 2"><g id="Wireframe"><path class="cls-1" d="M19.59,0A19.59,19.59,0,1,0,39.18,19.59,19.59,19.59,0,0,0,19.59,0Zm7.47,15c-.31.35-.63.69-.95,1a1.32,1.32,0,0,0-.32.84A10.09,10.09,0,0,1,22,24.46a8.49,8.49,0,0,1-6.25,1.72,8.91,8.91,0,0,1-3.48-1.13c-.12-.06-.22-.13-.34-.2v-.12a6.77,6.77,0,0,0,4.41-1.29A4.3,4.3,0,0,1,14,21.92a8.22,8.22,0,0,1-.45-.86L14.83,21a3.73,3.73,0,0,1-2.47-3.35l1.18.34.1-.08a3.72,3.72,0,0,1-.8-4.41A9.24,9.24,0,0,0,19.34,17a13.14,13.14,0,0,1,.12-1.56A3.17,3.17,0,0,1,23.34,13a5,5,0,0,1,1.34.73.59.59,0,0,0,.62.08l1.58-.61a5.5,5.5,0,0,1-1,1.62l.05.1,1.29-.39.05.06A2.53,2.53,0,0,1,27.06,15Z"/></g></g></svg>